# xmcd CD database file
#
# Track frame offsets:
#	150
#	12850
#	25245
#	38368
#	50360
#	63230
#	78295
#	91348
#	102048
#	119903
#	132698
#	151665
#	161015
#	174523
#	189108
#	202720
#	217935
#	234523
#
# Disc length: 3304 seconds
#
# Revision: 4
# Processed by: cddbd v1.5.2PL0 Copyright (c) Steve Scherf et al.
# Submitted via: CDex 1.72
#
DISCID=d70ce612
DTITLE=Shaver, Billy Joe (USA-87-Restless Wind: The Ledgend Of Billy Joe Shaver-cty) - Restless Wind: The Legendary Billy Joe Shaver 1973-1987
DYEAR=1987
DGENRE=Country
TTITLE0=Black Rose
TTITLE1=Old Five And Dimers Like Me
TTITLE2=Bottom Dollar
TTITLE3=Lately I Been Leanin' T'ward The Blues
TTITLE4=Texas Uphere Tennessee
TTITLE5=Ride Me Down Easy
TTITLE6=When I Get My Wings
TTITLE7=A Restless Wind
TTITLE8=You Asked Me To
TTITLE9=Fit To Killl And Going Out In Style
TTITLE10=Ragged Old Truck
TTITLE11=I'm Just An Old Chunk Of Coal
TTITLE12=Amtrak (Ain't Coming Back)
TTITLE13=Low Down Freedom
TTITLE14=I Been To Georgia On A Fast Train
TTITLE15=Sweet Mama
TTITLE16=It Was Fun While It Lasted
TTITLE17=Good News Blues
EXTD=YEAR: 1987
EXTT0=
EXTT1=
EXTT2=
EXTT3=
EXTT4=
EXTT5=
EXTT6=
EXTT7=
EXTT8=
EXTT9=
EXTT10=
EXTT11=
EXTT12=
EXTT13=
EXTT14=
EXTT15=
EXTT16=
EXTT17=
PLAYORDER=
